<svg xmlns="http://www.w3.org/2000/svg" width="14" height="14" viewBox="0 0 14 14">
  <path id="ico-refuse" d="M-776.326-1610a1.668,1.668,0,0,1,1.184.49l4.143,4.143,4.143-4.143a1.674,1.674,0,0,1,2.367,0,1.668,1.668,0,0,1,.49,1.184,1.668,1.668,0,0,1-.49,1.183l-4.143,4.143,4.143,4.143a1.669,1.669,0,0,1,.49,1.184,1.669,1.669,0,0,1-.49,1.184,1.674,1.674,0,0,1-2.367,0l-4.143-4.143-4.143,4.143a1.674,1.674,0,0,1-2.367,0,1.669,1.669,0,0,1-.49-1.184,1.668,1.668,0,0,1,.49-1.184l4.143-4.143-4.143-4.143a1.668,1.668,0,0,1-.49-1.183,1.668,1.668,0,0,1,.49-1.184A1.668,1.668,0,0,1-776.326-1610Z" transform="translate(778 1610)" fill="#f7f7f8"/>
</svg>
