<svg xmlns="http://www.w3.org/2000/svg" width="35" height="30" viewBox="0 0 35 30">
  <g id="ico-Residency" transform="translate(-30.893 -1)">
    <g id="Rectangle_1982" data-name="Rectangle 1982" transform="translate(30.893 1)" fill="#d6e4ed" stroke="#357ba6" stroke-width="0.5">
      <rect width="35" height="30" rx="2" stroke="none"/>
      <rect x="0.25" y="0.25" width="34.5" height="29.5" rx="1.75" fill="none"/>
    </g>
    <g id="Group_5092" data-name="Group 5092" transform="translate(-29.166 -162.333)">
      <g id="Group_4885" data-name="Group 4885" transform="translate(63.845 175.619)">
        <path id="Path_60298" data-name="Path 60298" d="M86.963,226.1H77.128v-1a4.918,4.918,0,0,1,4.918-4.918h0a4.918,4.918,0,0,1,4.918,4.918v1Z" transform="translate(-77.128 -220.182)" fill="#ceccda"/>
      </g>
      <g id="Group_4886" data-name="Group 4886" transform="translate(65.158 168.409)">
        <circle id="Ellipse_1828" data-name="Ellipse 1828" cx="3.605" cy="3.605" r="3.605" fill="#e6e5ec"/>
      </g>
      <g id="Group_4888" data-name="Group 4888" transform="translate(75.86 169.694)">
        <g id="Group_4887" data-name="Group 4887" transform="translate(0 0)">
          <path id="Path_60299" data-name="Path 60299" d="M125.256,199.357h-2.979a.576.576,0,1,1,0-1.152h2.979a.576.576,0,1,1,0,1.152Z" transform="translate(-121.701 -198.205)" fill="#357ba6"/>
        </g>
      </g>
      <g id="Group_4890" data-name="Group 4890" transform="translate(81.431 169.694)">
        <g id="Group_4889" data-name="Group 4889" transform="translate(0 0)">
          <path id="Path_60300" data-name="Path 60300" d="M152.205,199.357H142.94a.576.576,0,1,1,0-1.152h9.265a.576.576,0,0,1,0,1.152Z" transform="translate(-142.364 -198.205)" fill="#357ba6"/>
        </g>
      </g>
      <g id="Group_4892" data-name="Group 4892" transform="translate(75.86 172.905)">
        <g id="Group_4891" data-name="Group 4891" transform="translate(0 0)">
          <path id="Path_60301" data-name="Path 60301" d="M125.256,211.266h-2.979a.576.576,0,1,1,0-1.152h2.979a.576.576,0,1,1,0,1.152Z" transform="translate(-121.701 -210.114)" fill="#357ba6"/>
        </g>
      </g>
      <g id="Group_4894" data-name="Group 4894" transform="translate(81.431 172.905)">
        <g id="Group_4893" data-name="Group 4893" transform="translate(0 0)">
          <path id="Path_60302" data-name="Path 60302" d="M152.205,211.266H142.94a.576.576,0,1,1,0-1.152h9.265a.576.576,0,0,1,0,1.152Z" transform="translate(-142.364 -210.114)" fill="#357ba6"/>
        </g>
      </g>
      <g id="Group_4896" data-name="Group 4896" transform="translate(75.86 175.928)">
        <g id="Group_4895" data-name="Group 4895" transform="translate(0)">
          <path id="Path_60303" data-name="Path 60303" d="M125.256,222.482h-2.979a.576.576,0,0,1,0-1.152h2.979a.576.576,0,0,1,0,1.152Z" transform="translate(-121.701 -221.33)" fill="#357ba6"/>
        </g>
      </g>
      <g id="Group_4898" data-name="Group 4898" transform="translate(81.431 175.928)">
        <g id="Group_4897" data-name="Group 4897">
          <path id="Path_60304" data-name="Path 60304" d="M152.205,222.482H142.94a.576.576,0,0,1,0-1.152h9.265a.576.576,0,0,1,0,1.152Z" transform="translate(-142.364 -221.33)" fill="#357ba6"/>
        </g>
      </g>
      <g id="Group_4900" data-name="Group 4900" transform="translate(75.86 178.951)">
        <g id="Group_4899" data-name="Group 4899" transform="translate(0)">
          <path id="Path_60305" data-name="Path 60305" d="M125.256,233.7h-2.979a.576.576,0,1,1,0-1.152h2.979a.576.576,0,1,1,0,1.152Z" transform="translate(-121.701 -232.545)" fill="#357ba6"/>
        </g>
      </g>
      <g id="Group_4902" data-name="Group 4902" transform="translate(81.431 178.951)">
        <g id="Group_4901" data-name="Group 4901">
          <path id="Path_60306" data-name="Path 60306" d="M152.205,233.7H142.94a.576.576,0,1,1,0-1.152h9.265a.576.576,0,0,1,0,1.152Z" transform="translate(-142.364 -232.545)" fill="#357ba6"/>
        </g>
      </g>
      <g id="Group_4905" data-name="Group 4905" transform="translate(63.306 175.08)">
        <path id="Path_60309" data-name="Path 60309" d="M85.5,225.178H75.667a.539.539,0,0,1-.539-.539v-1a5.457,5.457,0,1,1,10.913,0v1A.539.539,0,0,1,85.5,225.178Zm-9.3-1.078h8.757v-.461a4.378,4.378,0,1,0-8.757,0Z" transform="translate(-75.128 -218.182)" fill="#22195a"/>
      </g>
      <g id="Group_4906" data-name="Group 4906" transform="translate(64.619 167.87)">
        <path id="Path_60310" data-name="Path 60310" d="M84.142,199.724a4.144,4.144,0,1,1,4.144-4.144A4.149,4.149,0,0,1,84.142,199.724Zm0-7.21a3.066,3.066,0,1,0,3.066,3.066A3.069,3.069,0,0,0,84.142,192.514Z" transform="translate(-79.998 -191.436)" fill="#22195a"/>
      </g>
      <rect id="Rectangle_1981" data-name="Rectangle 1981" width="30" height="4" rx="2" transform="translate(63.059 185.446)" fill="rgba(53,123,166,0.5)"/>
    </g>
  </g>
</svg>
