<svg xmlns="http://www.w3.org/2000/svg" width="35" height="35.004" viewBox="0 0 35 35.004">
  <g id="ico-Education" transform="translate(-0.999 -21.988)">
    <g id="Group_4529" data-name="Group 4529" transform="translate(1.275 37.967)">
      <g id="Group_4527" data-name="Group 4527" transform="translate(1.761 1.761)">
        <path id="Path_60015" data-name="Path 60015" d="M17.273,147.451a1.49,1.49,0,1,1,0-2.981h28.86v2.981Z" transform="translate(-15.783 -144.47)" fill="#d6e4ed"/>
      </g>
      <g id="Group_4528" data-name="Group 4528" transform="translate(0)">
        <path id="Path_60016" data-name="Path 60016" d="M35.111,136.43H6.3a1.519,1.519,0,0,1-1.527-1.347,1.492,1.492,0,0,1,1.484-1.634h29.74a.881.881,0,0,0,.881-.881h0a.881.881,0,0,0-.881-.881H6.325A3.311,3.311,0,0,0,3,135a3.252,3.252,0,0,0,3.251,3.189h29.74a.881.881,0,0,0,.881-.881h0a.881.881,0,0,0-.881-.881h-.881Z" transform="translate(-3 -131.688)" fill="#e0ebfc"/>
      </g>
    </g>
    <g id="Group_4532" data-name="Group 4532" transform="translate(0.999 37.691)">
      <g id="Group_4530" data-name="Group 4530" transform="translate(1.762 1.761)">
        <path id="Path_60017" data-name="Path 60017" d="M44.409,146H15.549a1.766,1.766,0,1,1,0-3.532h28.86a.276.276,0,0,1,.276.276v2.981A.276.276,0,0,1,44.409,146Zm-28.86-2.981a1.215,1.215,0,1,0,0,2.43H44.133v-2.43Z" transform="translate(-13.783 -142.47)" fill="#357ba6"/>
      </g>
      <g id="Group_4531" data-name="Group 4531" transform="translate(0)">
        <path id="Path_60018" data-name="Path 60018" d="M34.267,136.742H4.527A3.545,3.545,0,0,1,1,133.283a3.462,3.462,0,0,1,1.009-2.5A3.654,3.654,0,0,1,4.6,129.687H34.267a1.156,1.156,0,1,1,0,2.313H4.527a1.218,1.218,0,0,0-.9.4,1.2,1.2,0,0,0-.311.935,1.247,1.247,0,0,0,1.253,1.1h29.7a1.156,1.156,0,1,1,0,2.313ZM4.6,130.238a3.1,3.1,0,0,0-2.2.927,2.913,2.913,0,0,0-.851,2.107,2.991,2.991,0,0,0,2.976,2.919h29.74a.605.605,0,1,0,0-1.21H4.571a1.8,1.8,0,0,1-1.8-1.6,1.767,1.767,0,0,1,1.758-1.935h29.74a.605.605,0,1,0,0-1.21H4.6Z" transform="translate(-0.999 -129.687)" fill="#357ba6"/>
      </g>
    </g>
    <g id="Group_5089" data-name="Group 5089">
      <path id="Path_60019" data-name="Path 60019" d="M3.813,178.885H36.06a.813.813,0,0,1,.813.813v4.555a.813.813,0,0,1-.813.813H3.813A.813.813,0,0,1,3,184.253V179.7A.813.813,0,0,1,3.813,178.885Z" transform="translate(-1.723 -134.416)" fill="#ceccda"/>
      <path id="Path_60445" data-name="Path 60445" d="M8367.529-11260.831v-6.182h2.709v6.182Zm-23.529,0v-6.179h9.484v6.179Z" transform="translate(-8338.389 11311.48)" fill="#e6e5ec"/>
      <path id="Path_60446" data-name="Path 60446" d="M8374.85-11260.279h-29.761a1.089,1.089,0,0,1-1.089-1.089v-4.556a1.089,1.089,0,0,1,1.089-1.089h32.246a1.091,1.091,0,0,1,1.089,1.089v4.556a1.091,1.091,0,0,1-1.089,1.089Zm2.485-.552a.538.538,0,0,0,.538-.537v-4.556a.537.537,0,0,0-.538-.535h-2.211v5.628Zm-2.76,0v-5.628h-2.16v5.628Zm-2.711,0v-5.628H8358.37v5.628Zm-14.045,0v-5.628h-8.933v5.628Zm-13.271-5.093v4.556a.539.539,0,0,0,.54.537h3.246v-5.628h-3.246A.539.539,0,0,0,8344.549-11265.924Z" transform="translate(-8342.999 11311.205)" fill="#22195a"/>
    </g>
    <g id="Group_5090" data-name="Group 5090" transform="translate(1.001 50.258)">
      <path id="Path_60019-2" data-name="Path 60019" d="M36.06,178.885H3.813A.813.813,0,0,0,3,179.7v4.555a.813.813,0,0,0,.813.813H36.06a.813.813,0,0,0,.813-.813V179.7A.813.813,0,0,0,36.06,178.885Z" transform="translate(-2.724 -178.608)" fill="#ceccda"/>
      <path id="Path_60445-2" data-name="Path 60445" d="M8346.709-11260.831v-6.182H8344v6.182Zm23.529,0v-6.179h-9.484v6.179Z" transform="translate(-8340.425 11267.289)" fill="#e6e5ec"/>
      <path id="Path_60446-2" data-name="Path 60446" d="M8347.574-11260.279h29.761a1.089,1.089,0,0,0,1.089-1.089v-4.556a1.089,1.089,0,0,0-1.089-1.089h-32.246a1.091,1.091,0,0,0-1.089,1.089v4.556a1.091,1.091,0,0,0,1.089,1.089Zm-2.485-.552a.538.538,0,0,1-.538-.537v-4.556a.537.537,0,0,1,.538-.535h2.211v5.628Zm2.76,0v-5.628h2.16v5.628Zm2.711,0v-5.628h13.494v5.628Zm14.045,0v-5.628h8.933v5.628Zm13.271-5.093v4.556a.539.539,0,0,1-.54.537h-3.246v-5.628h3.246A.539.539,0,0,1,8377.875-11265.924Z" transform="translate(-8344 11267.014)" fill="#847fa3"/>
      <path id="Path_60474" data-name="Path 60474" d="M8347.574-11260.279h29.761a1.089,1.089,0,0,0,1.089-1.089v-4.556a1.089,1.089,0,0,0-1.089-1.089h-32.246a1.091,1.091,0,0,0-1.089,1.089v4.556a1.091,1.091,0,0,0,1.089,1.089Zm-2.485-.552a.538.538,0,0,1-.538-.537v-4.556a.537.537,0,0,1,.538-.535h2.211v5.628Zm2.76,0v-5.628h2.16v5.628Zm2.711,0v-5.628h13.494v5.628Zm14.045,0v-5.628h8.933v5.628Zm13.271-5.093v4.556a.539.539,0,0,1-.54.537h-3.246v-5.628h3.246A.539.539,0,0,1,8377.875-11265.924Z" transform="translate(-8344 11267.014)" fill="rgba(11,1,73,0.8)"/>
    </g>
    <g id="Group_4541" data-name="Group 4541" transform="translate(1.27 21.988)">
      <g id="Group_4536" data-name="Group 4536" transform="translate(0.276 0.277)">
        <path id="Path_60020" data-name="Path 60020" d="M20.23,25.251,5.467,30.729a.7.7,0,0,0,0,1.341L20.23,37.548a4.058,4.058,0,0,0,2.8,0L37.8,32.07a.7.7,0,0,0,0-1.341L23.033,25.251A4.059,4.059,0,0,0,20.23,25.251Z" transform="translate(-4.966 -25.001)" fill="#d6e4ed"/>
      </g>
      <g id="Group_4537" data-name="Group 4537">
        <path id="Path_60021" data-name="Path 60021" d="M19.907,36.34a4.3,4.3,0,0,1-1.5-.269L3.646,30.593a.974.974,0,0,1,0-1.857l14.763-5.478h0a4.306,4.306,0,0,1,3,0l14.763,5.478a.974.974,0,0,1,0,1.857L21.4,36.071A4.306,4.306,0,0,1,19.907,36.34ZM18.6,23.774,3.838,29.252a.425.425,0,0,0,0,.824L18.6,35.555a3.807,3.807,0,0,0,2.612,0l14.763-5.478a.425.425,0,0,0,0-.824L21.213,23.774a3.807,3.807,0,0,0-2.612,0Z" transform="translate(-2.966 -22.988)" fill="#357ba6"/>
      </g>
      <g id="Group_4538" data-name="Group 4538" transform="translate(6.416 7.992)">
        <path id="Path_60022" data-name="Path 60022" d="M69.852,87.971h-19.6a.726.726,0,0,1-.726-.726V81.71a.726.726,0,0,1,.726-.726h19.6a.726.726,0,0,1,.726.726v5.535A.726.726,0,0,1,69.852,87.971Z" transform="translate(-49.527 -80.984)" fill="#d6e4ed"/>
      </g>
      <g id="Group_4539" data-name="Group 4539" transform="translate(33.331 6.4)">
        <path id="Path_60023" data-name="Path 60023" d="M245.13,78.29a.276.276,0,0,1-.276-.276v-8.3a.276.276,0,1,1,.551,0v8.3A.276.276,0,0,1,245.13,78.29Z" transform="translate(-244.854 -69.437)" fill="#357ba6"/>
      </g>
      <g id="Group_4540" data-name="Group 4540" transform="translate(6.14 7.716)">
        <path id="Path_60024" data-name="Path 60024" d="M68.127,86.522h-19.6a1,1,0,0,1-1-1V79.985a1,1,0,0,1,1-1h19.6a1,1,0,0,1,1,1V85.52A1,1,0,0,1,68.127,86.522Zm-19.6-6.987a.451.451,0,0,0-.45.45V85.52a.451.451,0,0,0,.45.45h19.6a.451.451,0,0,0,.45-.45V79.985a.451.451,0,0,0-.45-.45Z" transform="translate(-47.527 -78.984)" fill="#357ba6"/>
      </g>
    </g>
    <g id="Group_4542" data-name="Group 4542" transform="translate(34.03 37.458)">
      <path id="Path_60025" data-name="Path 60025" d="M242.4,130.811h-1.694v-2.055a.757.757,0,0,1,.757-.757h.181a.757.757,0,0,1,.757.757Z" transform="translate(-240.709 -128)" fill="#d6e4ed"/>
    </g>
    <g id="Group_4543" data-name="Group 4543" transform="translate(33.755 37.183)">
      <path id="Path_60026" data-name="Path 60026" d="M240.678,129.363h-1.694a.276.276,0,0,1-.276-.276v-2.055A1.033,1.033,0,0,1,239.741,126h.181a1.033,1.033,0,0,1,1.032,1.032v2.055A.276.276,0,0,1,240.678,129.363Zm-1.418-.551H240.4v-1.779a.481.481,0,0,0-.481-.481h-.181a.481.481,0,0,0-.481.481Z" transform="translate(-238.709 -126)" fill="#357ba6"/>
    </g>
  </g>
</svg>
