<svg xmlns="http://www.w3.org/2000/svg" width="35" height="35.002" viewBox="0 0 35 35.002">
  <g id="ico-Experience" transform="translate(-2.064 -1.283)">
    <g id="Group_5018" data-name="Group 5018" transform="translate(6.537 16.356)">
      <g id="Group_5001" data-name="Group 5001" transform="translate(9.903 0.278)">
        <path id="Path_60383" data-name="Path 60383" d="M111.235,117.573l-1.294.244c-.235.044.074-.208-4.414,4.279l6.659,6.659,3.952-3.952a2.353,2.353,0,0,0,.679-1.614.57.57,0,0,1,.164-.39l3.7-3.7a.225.225,0,0,0,0-.318l-5.1-5.1a.225.225,0,0,0-.318,0C111.21,117.738,111.479,117.527,111.235,117.573Z" transform="translate(-105.527 -113.617)" fill="#ceccda"/>
      </g>
      <g id="Group_5002" data-name="Group 5002" transform="translate(9.626)">
        <path id="Path_60384" data-name="Path 60384" d="M110.464,127.312a.278.278,0,0,1-.2-.081l-6.659-6.659a.278.278,0,0,1,0-.393c1.03-1.03,1.806-1.809,2.4-2.4,1.912-1.919,1.912-1.919,2.143-1.952l.02,0,1.294-.244.051.273-.051-.273.057-.01c.08-.044.514-.479,1.671-1.641.533-.535,1.233-1.238,2.158-2.163a.5.5,0,0,1,.355-.147h0a.5.5,0,0,1,.355.147l5.1,5.1a.5.5,0,0,1,0,.711l-3.7,3.7a.3.3,0,0,0-.083.2h0a.259.259,0,0,1,0,.031,2.639,2.639,0,0,1-.758,1.772l-3.952,3.952A.278.278,0,0,1,110.464,127.312Zm-6.266-6.937,6.266,6.266,3.755-3.755a2.133,2.133,0,0,0,.6-1.383.289.289,0,0,1,0-.043.847.847,0,0,1,.245-.578l3.663-3.663L113.7,112.2c-.906.906-1.594,1.6-2.119,2.125-1.757,1.764-1.757,1.764-2,1.8l-.022,0-1.294.244-.045.007c-.115.075-.6.559-1.827,1.794C105.847,118.723,105.131,119.441,104.2,120.375Z" transform="translate(-103.527 -111.618)" fill="#357ba6"/>
      </g>
      <g id="Group_5003" data-name="Group 5003" transform="translate(0.278 0.434)">
        <path id="Path_60385" data-name="Path 60385" d="M52.54,131.385a.9.9,0,0,0,1.27,0l.364-.364a.9.9,0,0,0,0-1.27l.168.168a.9.9,0,0,0,1.27,0l.364-.364a.9.9,0,0,0,0-1.27l-8.406-8.406a1.347,1.347,0,0,0-1.129-.383l-.275.036-4.95-4.727a.219.219,0,0,0-.309,0l-4.587,4.587a.219.219,0,0,0,0,.309l4.1,4.1h0c.338.338.68.571.518.992a1.426,1.426,0,0,0,.221,1.732l4.384,4.384a1.927,1.927,0,0,0,.5.357l-.076.076,2.347,2.347a.9.9,0,0,0,1.27,0l.364-.364a.9.9,0,0,0,0-1.27l.647.647a.9.9,0,0,0,1.27,0l.364-.364a.9.9,0,0,0,0-1.27Z" transform="translate(-36.257 -114.741)" fill="#ceccda"/>
      </g>
      <path id="Union_61" data-name="Union 61" d="M21604.955-22758.17l-2.348-2.348a.271.271,0,0,1,0-.389l1.439-1.439-.029-.029a.282.282,0,0,1,0-.395.278.278,0,0,1,.395,0l3.217,3.217a.611.611,0,0,0,.875,0l.365-.359a.628.628,0,0,0,0-.881l-3.217-3.217a.278.278,0,0,1,0-.395.275.275,0,0,1,.389,0l3.223,3.223a1.156,1.156,0,0,1,.182.236.26.26,0,0,1,.127.072.607.607,0,0,0,.439.184.607.607,0,0,0,.439-.184l.365-.359a.628.628,0,0,0,0-.881l-3.49-3.484a.282.282,0,0,1,0-.395.282.282,0,0,1,.395,0l3.49,3.486a1.179,1.179,0,0,1,0,1.662l-.365.365a1.171,1.171,0,0,1-.834.344,1.179,1.179,0,0,1-.414-.076,1.179,1.179,0,0,1-.334.688l-.365.365a1.179,1.179,0,0,1-.83.348,1.176,1.176,0,0,1-.771-.291,1.215,1.215,0,0,1-.312.572l-.367.359a1.162,1.162,0,0,1-.828.348A1.175,1.175,0,0,1,21604.955-22758.17Zm-1.76-2.543,2.154,2.154a.615.615,0,0,0,.439.178.61.61,0,0,0,.436-.178l.365-.365a.619.619,0,0,0,.182-.439.621.621,0,0,0-.182-.441l-2.148-2.148Z" transform="translate(-21592.816 22777.752)" fill="#357ba6"/>
      <g id="Group_5007" data-name="Group 5007" transform="translate(0 0.156)">
        <path id="Path_60389" data-name="Path 60389" d="M47.226,132.514a1.169,1.169,0,0,1-.832-.344l-2.347-2.347a.276.276,0,0,1-.078-.155,2.168,2.168,0,0,1-.341-.278L39.244,125a1.7,1.7,0,0,1-.277-2.046c.053-.156-.022-.255-.317-.537-.048-.045-.1-.092-.145-.141l-4.1-4.1a.5.5,0,0,1,0-.7l4.587-4.587a.5.5,0,0,1,.7,0l4.849,4.631.143-.019a1.635,1.635,0,0,1,1.362.462l8.406,8.406a1.176,1.176,0,0,1,0,1.663l-.364.364a1.177,1.177,0,0,1-1.1.314,1.172,1.172,0,0,1-.343.788l-.364.364a1.178,1.178,0,0,1-1.248.268,1.17,1.17,0,0,1-.335.689l-.364.364a1.178,1.178,0,0,1-1.6.057,1.167,1.167,0,0,1-.315.567l-.364.364A1.169,1.169,0,0,1,47.226,132.514Zm-2.63-2.929,2.192,2.192a.62.62,0,0,0,.877,0l.364-.364a.62.62,0,0,0,0-.876h0a.278.278,0,1,1,.393-.393h0l.647.647a.621.621,0,0,0,.877,0l.364-.364a.621.621,0,0,0,0-.877.278.278,0,1,1,.393-.393l.313.313a.621.621,0,0,0,.877,0l.364-.364a.62.62,0,0,0,0-.877.278.278,0,0,1,.393-.393l.168.168a.621.621,0,0,0,.877,0l.364-.364a.62.62,0,0,0,0-.877l-8.406-8.406a1.076,1.076,0,0,0-.9-.3l-.275.036a.278.278,0,0,1-.228-.075l-4.911-4.69-4.5,4.5,4.061,4.061c.046.046.091.089.136.132.29.277.651.622.445,1.157a.277.277,0,0,1-.02.041,1.149,1.149,0,0,0,.178,1.395L44.022,129a1.654,1.654,0,0,0,.424.306.278.278,0,0,1,.149.2A.3.3,0,0,1,44.6,129.584Zm-5.293-16.3h0Z" transform="translate(-34.257 -112.744)" fill="#357ba6"/>
      </g>
      <g id="Group_5008" data-name="Group 5008" transform="translate(9.425 14.591)">
        <path id="Path_60390" data-name="Path 60390" d="M104.763,216.939l-2.47,2.338a.674.674,0,0,0-.026.952l.662.7a.674.674,0,0,0,.952.026l2.47-2.338a1.155,1.155,0,0,0,.045-1.633h0A1.155,1.155,0,0,0,104.763,216.939Z" transform="translate(-102.082 -216.623)" fill="#ceccda"/>
      </g>
      <g id="Group_5009" data-name="Group 5009" transform="translate(7.836 13.337)">
        <path id="Path_60391" data-name="Path 60391" d="M92.884,207.914l-2.022,1.914a.674.674,0,0,0-.026.952l.662.7a.674.674,0,0,0,.952.026l2.022-1.914a1.155,1.155,0,0,0,.045-1.633h0A1.156,1.156,0,0,0,92.884,207.914Z" transform="translate(-90.651 -207.598)" fill="#ceccda"/>
      </g>
      <g id="Group_5010" data-name="Group 5010" transform="translate(6.248 12.183)">
        <path id="Path_60392" data-name="Path 60392" d="M80.9,199.607,79.431,201a.674.674,0,0,0-.026.952l.662.7a.674.674,0,0,0,.952.026l1.469-1.39a1.155,1.155,0,0,0,.045-1.633h0A1.156,1.156,0,0,0,80.9,199.607Z" transform="translate(-79.221 -199.291)" fill="#ceccda"/>
      </g>
      <g id="Group_5011" data-name="Group 5011" transform="translate(4.66 11.103)">
        <path id="Path_60393" data-name="Path 60393" d="M68.837,191.839l-.836.792a.674.674,0,0,0-.026.952l.662.7a.674.674,0,0,0,.952.026l.836-.792a1.155,1.155,0,0,0,.045-1.633h0A1.155,1.155,0,0,0,68.837,191.839Z" transform="translate(-67.79 -191.523)" fill="#ceccda"/>
      </g>
      <path id="Union_60" data-name="Union 60" d="M21608.215-22757.812l-.664-.7a.949.949,0,0,1-.258-.682.939.939,0,0,1-.666-.295l-.664-.7a.962.962,0,0,1-.258-.687.937.937,0,0,1-.668-.3l-.662-.7a.958.958,0,0,1-.258-.682.007.007,0,0,1,0-.006.96.96,0,0,1-.67-.291l-.662-.7a.949.949,0,0,1,.039-1.344l.834-.795a1.437,1.437,0,0,1,2.029.059,1.423,1.423,0,0,1,.385.869,1.423,1.423,0,0,1,.832-.236,1.389,1.389,0,0,1,1,.447,1.421,1.421,0,0,1,.393.893,1.43,1.43,0,0,1,1.75.262,1.44,1.44,0,0,1,.393.936,1.439,1.439,0,0,1,.641-.131,1.439,1.439,0,0,1,1.006.445,1.442,1.442,0,0,1-.057,2.029l-2.475,2.336a.944.944,0,0,1-.65.258A.944.944,0,0,1,21608.215-22757.812Zm-.258-1.08.658.7a.408.408,0,0,0,.564.016l2.469-2.342a.879.879,0,0,0,.035-1.24.862.862,0,0,0-.617-.273h-.023a.867.867,0,0,0-.6.24l-.416.393-.035.035-2.023,1.914-.027.023A.4.4,0,0,0,21607.957-22758.893Zm-1.588-1.674.662.7a.4.4,0,0,0,.561.016l2.021-1.918a.875.875,0,0,0,.035-1.234.882.882,0,0,0-.617-.275.871.871,0,0,0-.623.24l-2.027,1.914A.4.4,0,0,0,21606.369-22760.566Zm-1.7-1.967a.385.385,0,0,0,.109.287l.662.7a.4.4,0,0,0,.555.012l1.469-1.389a.877.877,0,0,0,.279-.611.871.871,0,0,0-.24-.627.882.882,0,0,0-.617-.275h-.023a.841.841,0,0,0-.6.24l-.588.555-.045.045-.84.789A.392.392,0,0,0,21604.672-22762.533Zm-.629-2.742-.834.789a.4.4,0,0,0-.018.561l.664.7a.385.385,0,0,0,.555.012l.875-.824a.881.881,0,0,0,0-1.2.872.872,0,0,0-.639-.277A.863.863,0,0,0,21604.043-22765.275Z" transform="translate(-21598.145 22776.898)" fill="#357ba6"/>
      <g id="Group_5016" data-name="Group 5016" transform="translate(8.633 4.518)">
        <path id="Path_60398" data-name="Path 60398" d="M102.5,144.723l-.588-.588c-.113.038.092-.063-2.835,1.481a1,1,0,0,0-.394.374l-2.252,3.772a.329.329,0,0,0-.028.059c0,.006,0,.011,0,.017a.331.331,0,0,0-.011.046s0,0,0,0a.326.326,0,0,0,.155.321,1.771,1.771,0,0,0,1.8,0c.491-.291.475-.381,2.195-3.261a.756.756,0,0,1,.207-.226l.321-.232Z" transform="translate(-96.387 -144.135)" fill="#ceccda"/>
      </g>
      <path id="Path_60399" data-name="Path 60399" d="M95.678,147.465h-.033a1.382,1.382,0,0,1-1.2-.531.574.574,0,0,1,.012-.587l2.252-3.772a1.284,1.284,0,0,1,.5-.477l2.687-1.417a2.774,2.774,0,0,1,.928-.235l.566-.106a.278.278,0,0,1,.1.546l-.568.106c-.66.122-.664.125-.77.18l-2.687,1.417a.727.727,0,0,0-.285.271l-2.252,3.772a.061.061,0,0,0-.009.021c.005.039.141.165.431.225a1.528,1.528,0,0,0,1.626-.691l1.582-2.649a1.031,1.031,0,0,1,.283-.309l.321-.232a.278.278,0,1,1,.325.451l-.321.232a.48.48,0,0,0-.131.143l-1.582,2.649A2.05,2.05,0,0,1,95.678,147.465Z" transform="translate(-86.02 -136.344)" fill="#357ba6"/>
    </g>
    <g id="Group_5019" data-name="Group 5019" transform="translate(21.992 14.585)">
      <path id="Path_60400" data-name="Path 60400" d="M145.6,104.112l6.33,6.284a.417.417,0,0,0,.587,0l4.47-4.438a.417.417,0,0,0,0-.592L150.57,99a.417.417,0,0,0-.593.006l-4.384,4.523A.417.417,0,0,0,145.6,104.112Z" transform="translate(-145.476 -98.876)" fill="#84aec9"/>
    </g>
    <g id="Group_5020" data-name="Group 5020" transform="translate(5.23 15.093)">
      <path id="Path_60401" data-name="Path 60401" d="M36.133,108.3l-5.521,5.522a.417.417,0,0,1-.59,0l-5.049-5.05a.417.417,0,0,1,0-.589l5.529-5.53a.417.417,0,0,1,.59,0l5.041,5.058A.417.417,0,0,1,36.133,108.3Z" transform="translate(-24.851 -102.528)" fill="#84aec9"/>
    </g>
    <g id="Group_5021" data-name="Group 5021" transform="translate(21.715 14.307)">
      <path id="Path_60402" data-name="Path 60402" d="M150.508,109.072a.692.692,0,0,1-.49-.2l-6.33-6.284h0a.7.7,0,0,1-.009-.977l4.383-4.523a.69.69,0,0,1,.492-.211h.007a.69.69,0,0,1,.489.2l6.416,6.37a.695.695,0,0,1,0,.986L151,108.871A.692.692,0,0,1,150.508,109.072Zm-6.428-6.88,6.33,6.284a.139.139,0,0,0,.2,0l4.47-4.438a.139.139,0,0,0,0-.2l-6.416-6.37a.135.135,0,0,0-.1-.04.139.139,0,0,0-.1.042L144.078,102a.14.14,0,0,0,0,.2Z" transform="translate(-143.484 -96.876)" fill="#357ba6"/>
    </g>
    <g id="Group_5022" data-name="Group 5022" transform="translate(4.953 14.815)">
      <path id="Path_60403" data-name="Path 60403" d="M28.6,112.5a.69.69,0,0,1-.491-.2l-5.049-5.05a.7.7,0,0,1,0-.983l5.529-5.53a.69.69,0,0,1,.491-.2h0a.691.691,0,0,1,.492.2l5.041,5.059a.7.7,0,0,1,0,.982h0l-5.521,5.522A.69.69,0,0,1,28.6,112.5Zm.48-11.414a.138.138,0,0,0-.1.041l-5.529,5.53a.139.139,0,0,0,0,.2L28.5,111.9a.139.139,0,0,0,.2,0l5.521-5.522h0a.139.139,0,0,0,0-.2l-5.041-5.058a.137.137,0,0,0-.1-.041Z" transform="translate(-22.852 -100.527)" fill="#357ba6"/>
    </g>
    <g id="Group_5023" data-name="Group 5023" transform="translate(22.569 11.423)">
      <path id="Path_60404" data-name="Path 60404" d="M149.9,81.685l5.109-5.272a.973.973,0,0,1,1.384-.013l7.163,7.112a.973.973,0,0,1,0,1.381l-5.209,5.172a.973.973,0,0,1-1.371,0l-7.062-7.012A.973.973,0,0,1,149.9,81.685Z" transform="translate(-149.627 -76.118)" fill="#d6e4ed"/>
    </g>
    <g id="Group_5024" data-name="Group 5024" transform="translate(22.293 11.145)">
      <path id="Path_60405" data-name="Path 60405" d="M155.952,88.9a1.247,1.247,0,0,1-.881-.362l-7.062-7.012a1.255,1.255,0,0,1-.017-1.758L153.1,74.5a1.242,1.242,0,0,1,.886-.38,1.26,1.26,0,0,1,.893.363l7.163,7.112a1.251,1.251,0,0,1,0,1.775l-5.209,5.172A1.247,1.247,0,0,1,155.952,88.9ZM154,74.674h-.007a.69.69,0,0,0-.492.211l-5.109,5.272h0a.7.7,0,0,0,.009.976l7.062,7.012a.7.7,0,0,0,.979,0l5.209-5.172a.695.695,0,0,0,0-.986l-7.163-7.112A.69.69,0,0,0,154,74.674Zm-5.808,5.29h0Z" transform="translate(-147.64 -74.118)" fill="#357ba6"/>
    </g>
    <g id="Group_5025" data-name="Group 5025" transform="translate(2.341 12.203)">
      <path id="Path_60406" data-name="Path 60406" d="M4.345,88.285l6.267-6.268a.973.973,0,0,1,1.377,0l5.777,5.8a.973.973,0,0,1,0,1.374l-6.257,6.258a.973.973,0,0,1-1.376,0L4.345,89.661A.973.973,0,0,1,4.345,88.285Z" transform="translate(-4.06 -81.732)" fill="#d6e4ed"/>
    </g>
    <g id="Group_5026" data-name="Group 5026" transform="translate(2.064 11.925)">
      <path id="Path_60407" data-name="Path 60407" d="M9.1,94.287a1.243,1.243,0,0,1-.884-.366L2.43,88.134a1.252,1.252,0,0,1,0-1.769h0L8.7,80.1a1.242,1.242,0,0,1,.884-.366h0a1.242,1.242,0,0,1,.885.368l5.777,5.8a1.252,1.252,0,0,1,0,1.767L9.985,93.921A1.242,1.242,0,0,1,9.1,94.287Zm.481-14a.69.69,0,0,0-.491.2L2.823,86.758h0a.7.7,0,0,0,0,.982l5.786,5.787a.695.695,0,0,0,.983,0l6.257-6.258a.7.7,0,0,0,0-.982l-5.777-5.8a.691.691,0,0,0-.491-.2ZM2.626,86.562h0Z" transform="translate(-2.064 -79.731)" fill="#357ba6"/>
    </g>
    <g id="Group_5027" data-name="Group 5027" transform="translate(29.677 21.852)">
      <circle id="Ellipse_1833" data-name="Ellipse 1833" cx="0.97" cy="0.97" r="0.97" fill="#84aec9"/>
    </g>
    <g id="Group_5028" data-name="Group 5028" transform="translate(29.4 21.574)">
      <path id="Path_60408" data-name="Path 60408" d="M200.032,151.67a1.248,1.248,0,1,1,1.248-1.248A1.25,1.25,0,0,1,200.032,151.67Zm0-1.941a.692.692,0,1,0,.692.692A.693.693,0,0,0,200.032,149.729Z" transform="translate(-198.784 -149.173)" fill="#357ba6"/>
    </g>
    <g id="Group_5029" data-name="Group 5029" transform="translate(7.906 21.852)">
      <circle id="Ellipse_1834" data-name="Ellipse 1834" cx="0.97" cy="0.97" r="0.97" fill="#84aec9"/>
    </g>
    <g id="Group_5030" data-name="Group 5030" transform="translate(7.628 21.574)">
      <path id="Path_60409" data-name="Path 60409" d="M43.353,151.67a1.248,1.248,0,1,1,1.248-1.248A1.25,1.25,0,0,1,43.353,151.67Zm0-1.941a.692.692,0,1,0,.692.692A.693.693,0,0,0,43.353,149.729Z" transform="translate(-42.105 -149.173)" fill="#357ba6"/>
    </g>
    <g id="Group_5046" data-name="Group 5046" transform="translate(13.069 1.283)">
      <g id="Group_4997" data-name="Group 4997" transform="translate(0.25 0.255)">
        <path id="Path_60380" data-name="Path 60380" d="M89.48,15.42A6.219,6.219,0,1,1,95.7,9.2,6.226,6.226,0,0,1,89.48,15.42Z" transform="translate(-83.261 -2.982)" fill="#ceccda"/>
      </g>
      <g id="Group_4999" data-name="Group 4999" transform="translate(0 0)">
        <path id="Path_60382" data-name="Path 60382" d="M87.759,13.976a6.5,6.5,0,1,1,6.5-6.5A6.5,6.5,0,0,1,87.759,13.976Zm0-12.438A5.941,5.941,0,1,0,93.7,7.478,5.948,5.948,0,0,0,87.759,1.538Z" transform="translate(-81.262 -0.982)" fill="#484076"/>
      </g>
      <g id="Group_5044" data-name="Group 5044" transform="translate(2.335 3.451)">
        <g id="Group_5040" data-name="Group 5040">
          <path id="Path_60417" data-name="Path 60417" d="M130.446,65.249a1.144,1.144,0,0,1-.835-.363l-2-2.147a.739.739,0,1,1,1.082-1.007l1.751,1.882,4.027-4.327a.739.739,0,0,1,1.082,1.007l-4.274,4.592A1.144,1.144,0,0,1,130.446,65.249Z" transform="translate(-127.415 -59.052)" fill="#484076"/>
        </g>
      </g>
    </g>
  </g>
</svg>
