<svg xmlns="http://www.w3.org/2000/svg" width="35" height="35.126" viewBox="0 0 35 35.126">
  <g id="ico-Experience" transform="translate(-1 -30.249)">
    <g id="Group_4787" data-name="Group 4787" transform="translate(1 30.526)">
      <path id="Path_60223" data-name="Path 60223" d="M36.071,58.364H4.378A1.378,1.378,0,0,1,3,56.986V33.628A1.378,1.378,0,0,1,4.378,32.25H36.071a1.378,1.378,0,0,1,1.378,1.378V56.986A1.378,1.378,0,0,1,36.071,58.364Z" transform="translate(-3 -32.25)" fill="#84aec9"/>
    </g>
    <g id="Group_4788" data-name="Group 4788" transform="translate(3.343 32.593)">
      <path id="Path_60224" data-name="Path 60224" d="M45.9,47.8h0a.551.551,0,0,0-.551-.551H21.031a.551.551,0,0,0-.551.551h0a1.86,1.86,0,0,1-1.86,1.86h-.069a.551.551,0,0,0-.551.551V66.268a.551.551,0,0,0,.551.551h.069a1.86,1.86,0,0,1,1.86,1.86h0a.551.551,0,0,0,.551.551H45.352a.551.551,0,0,0,.551-.551h0a1.86,1.86,0,0,1,1.86-1.86h0a.551.551,0,0,0,.551-.551V50.213a.551.551,0,0,0-.551-.551h0A1.86,1.86,0,0,1,45.9,47.8Z" transform="translate(-18 -47.25)" fill="#d6e4ed"/>
    </g>
    <path id="Union_58" data-name="Union 58" d="M21933.6-22708.959a.6.6,0,0,1-.6-.6.6.6,0,0,1,.6-.6h24.3a.6.6,0,0,1,.6.6.6.6,0,0,1-.6.6Zm0-3.125a.6.6,0,0,1-.6-.6.6.6,0,0,1,.6-.6h24.3a.6.6,0,0,1,.6.6.6.6,0,0,1-.6.6Zm0-3.125a.6.6,0,0,1-.6-.6.6.6,0,0,1,.6-.6h24.3a.6.6,0,0,1,.6.6.6.6,0,0,1-.6.6Zm7.326-3.473a1.04,1.04,0,0,1-1.037-1.037,1.037,1.037,0,0,1,1.037-1.033h9.643a1.034,1.034,0,0,1,1.033,1.033,1.037,1.037,0,0,1-1.033,1.037Z" transform="translate(-21927.246 22755.553)" fill="rgba(53,123,166,0.5)"/>
    <path id="Path_60466" data-name="Path 60466" d="M7735.652-11230.086a1.654,1.654,0,0,1-1.652-1.652v-23.357a1.657,1.657,0,0,1,1.652-1.655h31.695a1.655,1.655,0,0,1,1.652,1.655v23.357a1.652,1.652,0,0,1-1.652,1.652Zm-1.1-25.01v23.357a1.1,1.1,0,0,0,1.1,1.1h31.695a1.1,1.1,0,0,0,1.1-1.1v-23.357a1.106,1.106,0,0,0-1.1-1.1h-31.695A1.105,1.105,0,0,0,7734.55-11255.1Zm4.825,22.942a.827.827,0,0,1-.828-.825,1.588,1.588,0,0,0-1.585-1.585h-.071a.826.826,0,0,1-.825-.827v-16.055a.828.828,0,0,1,.825-.828h.071a1.585,1.585,0,0,0,1.585-1.582.827.827,0,0,1,.828-.828h24.318a.827.827,0,0,1,.828.828,1.585,1.585,0,0,0,1.585,1.582.831.831,0,0,1,.828.828v16.055a.829.829,0,0,1-.828.827,1.588,1.588,0,0,0-1.585,1.585.827.827,0,0,1-.828.825Zm-2.757-19.292v16.055a.277.277,0,0,0,.274.276h.071a2.138,2.138,0,0,1,2.136,2.136.275.275,0,0,0,.277.274h24.318a.275.275,0,0,0,.277-.274,2.138,2.138,0,0,1,2.136-2.136.277.277,0,0,0,.277-.276v-16.055a.275.275,0,0,0-.277-.274,2.138,2.138,0,0,1-2.136-2.136.278.278,0,0,0-.277-.277h-24.318a.278.278,0,0,0-.277.277,2.138,2.138,0,0,1-2.136,2.136h-.071A.274.274,0,0,0,7736.618-11251.445Z" transform="translate(-7733 11287)" fill="#357ba6"/>
    <g id="Award" transform="translate(-9.821 45.5)">
      <g id="Group_5094" data-name="Group 5094" transform="translate(26.996 9.835)">
        <path id="Path_60459" data-name="Path 60459" d="M111.85,109.6,116,116.791a.27.27,0,0,0,.487-.039l.781-2.055a.27.27,0,0,1,.3-.171l2.17.351a.27.27,0,0,0,.277-.4l-4.154-7.194a.27.27,0,0,0-.369-.1l-3.542,2.045A.27.27,0,0,0,111.85,109.6Z" transform="translate(-111.814 -107.147)" fill="#ceccda"/>
      </g>
      <g id="Group_5095" data-name="Group 5095" transform="translate(20.957 9.835)">
        <path id="Path_60460" data-name="Path 60460" d="M31.022,109.6l-4.154,7.194a.27.27,0,0,1-.487-.039L25.6,114.7a.27.27,0,0,0-.3-.171l-2.17.351a.27.27,0,0,1-.277-.4l4.154-7.194a.27.27,0,0,1,.369-.1l3.542,2.045A.27.27,0,0,1,31.022,109.6Z" transform="translate(-22.822 -107.147)" fill="#ceccda"/>
      </g>
      <path id="Union_51" data-name="Union 51" d="M7764.068-11288.4l-2.972-5.149-2.974,5.149a.4.4,0,0,1-.352.2h-.034a.409.409,0,0,1-.346-.262l-.78-2.056a.138.138,0,0,0-.147-.085l-2.169.352a.4.4,0,0,1-.4-.17.4.4,0,0,1-.017-.434l4.154-7.194a.4.4,0,0,1,.553-.146l2.511,1.449,2.511-1.449a.409.409,0,0,1,.556.146l4.151,7.194a.4.4,0,0,1-.017.434.4.4,0,0,1-.4.173l-2.169-.352a.134.134,0,0,0-.147.085l-.78,2.053a.406.406,0,0,1-.346.262l-.034,0A.4.4,0,0,1,7764.068-11288.4Zm.235-.136a.129.129,0,0,0,.127.065.13.13,0,0,0,.116-.085l.78-2.056a.408.408,0,0,1,.445-.256l2.169.352a.13.13,0,0,0,.13-.057.138.138,0,0,0,.009-.145l-4.154-7.193a.136.136,0,0,0-.119-.065.147.147,0,0,0-.065.017l-2.375,1.371.759.438a.4.4,0,0,1,.19.247.407.407,0,0,1-.04.309l-1.024,1.773Zm-7.44-2.075.78,2.056a.13.13,0,0,0,.116.085.129.129,0,0,0,.127-.065l3.052-5.287-1.021-1.771a.394.394,0,0,1-.042-.309.4.4,0,0,1,.19-.247l.76-.438-2.376-1.373a.138.138,0,0,0-.184.051l-4.151,7.193a.133.133,0,0,0,.006.145.13.13,0,0,0,.13.057l2.169-.352a.541.541,0,0,1,.065-.006A.405.405,0,0,1,7756.863-11290.612Zm3.337-5.3a.13.13,0,0,0-.062.082.144.144,0,0,0,.011.1l.945,1.636.946-1.639a.122.122,0,0,0,.011-.1.13.13,0,0,0-.062-.082l-.894-.517Z" transform="translate(-7733 11307.947)" fill="#484076" stroke="#484076" stroke-width="0.25"/>
      <g id="Group_5098" data-name="Group 5098" transform="translate(22.473 2.886)">
        <circle id="Ellipse_1836" data-name="Ellipse 1836" cx="5.621" cy="5.621" r="5.621" transform="translate(0)" fill="#ceccda"/>
      </g>
      <g id="Group_5099" data-name="Group 5099" transform="translate(23.857 4.269)">
        <circle id="Ellipse_1837" data-name="Ellipse 1837" cx="4.238" cy="4.238" r="4.238" transform="translate(0)" fill="#fff"/>
        <circle id="Ellipse_1838" data-name="Ellipse 1838" cx="4.238" cy="4.238" r="4.238" transform="translate(0)" fill="#ceccda" opacity="0.5"/>
      </g>
      <path id="Union_50" data-name="Union 50" d="M7753.821-11292.494a5.764,5.764,0,0,1,5.756-5.757,5.765,5.765,0,0,1,5.759,5.757,5.765,5.765,0,0,1-5.759,5.759A5.764,5.764,0,0,1,7753.821-11292.494Zm.272,0a5.492,5.492,0,0,0,5.483,5.486,5.492,5.492,0,0,0,5.487-5.486,5.492,5.492,0,0,0-5.487-5.484A5.491,5.491,0,0,0,7754.093-11292.494Zm1.111,0a4.379,4.379,0,0,1,4.375-4.373,4.379,4.379,0,0,1,4.373,4.373,4.379,4.379,0,0,1-4.373,4.375A4.379,4.379,0,0,1,7755.2-11292.494Zm.272,0a4.107,4.107,0,0,0,4.1,4.1,4.106,4.106,0,0,0,4.1-4.1,4.106,4.106,0,0,0-4.1-4.1A4.106,4.106,0,0,0,7755.477-11292.494Z" transform="translate(-7731.483 11301)" fill="#484076" stroke="#484076" stroke-width="0.25"/>
    </g>
  </g>
</svg>
