<svg xmlns="http://www.w3.org/2000/svg" width="35" height="35.394" viewBox="0 0 35 35.394">
  <g id="ico-bank" transform="translate(-9.124 -0.466)">
    <path id="Path_60456" data-name="Path 60456" d="M.04,21.691V19.6a.585.585,0,0,1,.593-.576H2.654V3.756H6.679v15.27H30.991a.586.586,0,0,1,.593.576v2.089Zm24.884-2.665V3.618H.593A.585.585,0,0,1,0,3.043V.575A.585.585,0,0,1,.593,0H30.951a.585.585,0,0,1,.594.575V3.043a.585.585,0,0,1-.594.575H28.97V19.026Z" transform="translate(10.851 10.681)" fill="#d6e4ed"/>
    <path id="Path_60457" data-name="Path 60457" d="M8031.717-11251.188a.594.594,0,0,1-.592-.595v-1.561a.592.592,0,0,1,.592-.593h33.227a.592.592,0,0,1,.592.593v1.561a.6.6,0,0,1-.6.595Zm24.659-5.5v-1.906a.592.592,0,0,1,.592-.592h5.073a.594.594,0,0,1,.592.592v1.906Zm-22.351,0v-1.906a.594.594,0,0,1,.592-.592h5.073a.594.594,0,0,1,.595.592v1.906Zm23.45-13.779-.957-1.838h5.97l-.963,1.838Zm-22.348,0-.958-1.838h5.97l-.963,1.838Zm27.362-1.838.144-.275.005.275Zm-6.122,0,.009-.275.143.275Zm-16.229,0,.144-.275.005.275Zm-6.119,0,.006-.275.143.275Zm0-4,13.72-9.5a1.037,1.037,0,0,1,1.181,0l13.72,9.5Z" transform="translate(-8021.706 11286.901)" fill="#84aec9"/>
    <path id="Path_60150" data-name="Path 60150" d="M67.9,20.1l8.571-5.757a.3.3,0,0,1,.335,0L85.376,20.1a.284.284,0,0,1-.168.52H68.066A.284.284,0,0,1,67.9,20.1Z" transform="translate(-50.013 -11.397)" fill="#d6e4ed"/>
    <path id="Path_60458" data-name="Path 60458" d="M8032.011-11250.6a.888.888,0,0,1-.886-.886v-1.563a.888.888,0,0,1,.886-.887h.547v-1.861a.892.892,0,0,1,.886-.89h.583v-1.614a.89.89,0,0,1,.887-.887h.328l-.033-10.782a.3.3,0,0,0,.215.094h0a.293.293,0,0,1-.261-.156l-1.022-1.954h-.7a.888.888,0,0,1-.886-.887v-2.544a.886.886,0,0,1,.886-.889h.776l13.644-9.449a1.325,1.325,0,0,1,1.516,0l13.641,9.449h.782a.886.886,0,0,1,.887.889v2.544a.888.888,0,0,1-.887.887h-.7l-1.02,1.954.037-.068.033,10.913h.182a.889.889,0,0,1,.886.887v1.614h.583a.89.89,0,0,1,.887.89v1.861h.547a.888.888,0,0,1,.886.887v1.563a.888.888,0,0,1-.886.886Zm-.294-2.449v1.563a.3.3,0,0,0,.294.3h33.228a.3.3,0,0,0,.3-.3v-1.563a.3.3,0,0,0-.3-.3h-33.228A.3.3,0,0,0,8031.716-11253.048Zm1.43-2.748v1.861H8064.1v-1.861a.293.293,0,0,0-.295-.3h-30.358A.3.3,0,0,0,8033.146-11255.8Zm23.818-2.5v1.614h5.668v-1.614a.3.3,0,0,0-.3-.294h-5.073A.3.3,0,0,0,8056.964-11258.3Zm-16.978-.887a.892.892,0,0,1,.89.887v1.614h15.5v-1.614a.89.89,0,0,1,.887-.887h.251l-.033-10.91-.985-1.889h-15.74l-.943,1.807.014-.025.033,11.018Zm-5.37.887v1.614h5.667v-1.614a.294.294,0,0,0-.3-.294h-5.073A.3.3,0,0,0,8034.617-11258.3Zm1.215-.89h3.436l-.034-10.686H8035.8Zm22.271-.03h3.458l-.034-10.655h-3.458Zm-.15-11.245h3.69l.8-1.521h-5.282Zm-22.351,0h3.693l.8-1.521h-5.285Zm-2.456-4.951v2.544a.3.3,0,0,0,.3.3H8063.8a.3.3,0,0,0,.3-.3v-2.544a.3.3,0,0,0-.3-.3h-30.358A.3.3,0,0,0,8033.146-11275.416Zm15.058-9.856-12.95,8.968h26.738l-12.944-8.968a.759.759,0,0,0-.426-.131A.721.721,0,0,0,8048.2-11285.272Zm-8.149,8.059a.588.588,0,0,1-.564-.414.59.59,0,0,1,.227-.66l8.574-5.937a.589.589,0,0,1,.668,0l8.571,5.937a.591.591,0,0,1,.229.66.585.585,0,0,1-.564.414Zm0-.59,0,0,17.145,0-8.574-5.937Zm-.167-.243h0Z" transform="translate(-8022.001 11286.459)" fill="#357ba6"/>
    <g id="Group_5093" data-name="Group 5093" transform="translate(20.901 15.963)">
      <circle id="Ellipse_1810" data-name="Ellipse 1810" cx="5.801" cy="5.801" r="5.801" fill="#ceccda"/>
      <path id="Path_60180" data-name="Path 60180" d="M117.349,118.844v-1.5a.752.752,0,0,1,.686.746.614.614,0,0,0,1.228,0,1.982,1.982,0,0,0-1.92-1.978.61.61,0,0,0-1.215,0,1.979,1.979,0,0,0-.006,3.955v2.05a.752.752,0,0,1-.686-.746.614.614,0,0,0-1.228,0,1.982,1.982,0,0,0,1.92,1.978.61.61,0,0,0,1.215,0,1.982,1.982,0,0,0,1.92-1.978v-.547A1.981,1.981,0,0,0,117.349,118.844Zm-1.914-.757a.752.752,0,0,1,.686-.746v1.493A.752.752,0,0,1,115.435,118.088Zm2.6,3.281a.752.752,0,0,1-.686.747v-2.04a.752.752,0,0,1,.686.746Z" transform="translate(-110.968 -113.959)" fill="#0b0149"/>
      <path id="Path_60202" data-name="Path 60202" d="M115.031,122.487a.9.9,0,0,1-.839-.567,2.262,2.262,0,0,1-1.983-2.255.908.908,0,0,1,1.816,0,.451.451,0,0,0,.1.281v-1.318a2.273,2.273,0,0,1,.069-4.5.9.9,0,0,1,1.679,0,2.262,2.262,0,0,1,1.983,2.255.909.909,0,0,1-.908.908h-.006a2.264,2.264,0,0,1,.914,1.826v.547a2.262,2.262,0,0,1-1.983,2.255A.9.9,0,0,1,115.031,122.487Zm-1.914-3.141a.32.32,0,0,0-.319.319,1.677,1.677,0,0,0,1.635,1.684.294.294,0,0,1,.284.264.316.316,0,0,0,.629,0,.294.294,0,0,1,.284-.264,1.677,1.677,0,0,0,1.635-1.684v-.547a1.678,1.678,0,0,0-1.629-1.683.3.3,0,0,1-.285-.294v-1.5a.3.3,0,0,1,.1-.217.3.3,0,0,1,.225-.076,1.041,1.041,0,0,1,.954,1.04.319.319,0,1,0,.639,0,1.677,1.677,0,0,0-1.635-1.683.3.3,0,0,1-.284-.264.316.316,0,0,0-.629,0,.294.294,0,0,1-.284.264,1.684,1.684,0,0,0-.006,3.367.3.3,0,0,1,.285.294v2.05a.294.294,0,0,1-.1.217.3.3,0,0,1-.225.076,1.041,1.041,0,0,1-.954-1.04A.32.32,0,0,0,113.117,119.346Zm2.822-2.472a2.263,2.263,0,0,1,.286.064.9.9,0,0,1-.189-.554.451.451,0,0,0-.1-.281Zm-.294,3.832a.294.294,0,0,1-.294-.294v-2.04a.3.3,0,0,1,.1-.217.3.3,0,0,1,.225-.076,1.041,1.041,0,0,1,.955,1.04v.547a1.041,1.041,0,0,1-.955,1.04Zm.294-1.869v1.11a.451.451,0,0,0,.1-.282v-.547A.452.452,0,0,0,115.939,118.836Zm-1.522-1.412h-.027a1.044,1.044,0,0,1,0-2.079.294.294,0,0,1,.321.293v1.493a.294.294,0,0,1-.294.294Zm-.294-1.322a.455.455,0,0,0,0,.563Z" transform="translate(-109.265 -112.256)" fill="#ceccda"/>
    </g>
  </g>
</svg>
