<svg xmlns="http://www.w3.org/2000/svg" width="35" height="35" viewBox="0 0 35 35">
  <g id="ico-GOSI" transform="translate(-30.893 -1)">
    <g id="Rectangle_1982" data-name="Rectangle 1982" transform="translate(30.893 1)" fill="#d6e4ed" stroke="#357ba6" stroke-width="0.5">
      <rect width="35" height="35" rx="2" stroke="none"/>
      <rect x="0.25" y="0.25" width="34.5" height="34.5" rx="1.75" fill="none"/>
    </g>
    <g id="Group_5091" data-name="Group 5091" transform="translate(3.211)">
      <path id="Path_60030" data-name="Path 60030" d="M66.011,6.307s-.547-.875-.146-1.385L68.526,2.37l4.193,4.01-6.89,6.635s-5.979-.036-9-4.484c0,0-2.3-3.573,1.969-6.708,0,0,2.588-1.713,4.229-1.823l.036.182a11.011,11.011,0,0,0-4.265,2.042c-3.937,3.208-.8,6.271-.8,6.271,2.844,2.917,7.583,3.135,7.583,3.135l5.469-5.25L68.454,3.9,66.011,6.307Z" transform="translate(-21.524 12)" fill="#357ba6"/>
      <path id="Path_60031" data-name="Path 60031" d="M77.908,7.145s.547.839.146,1.349l-2.661,2.552L71.2,7.035,78.09.4s5.979.036,9,4.484c0,0,2.3,3.573-1.969,6.708,0,0-2.625,1.713-4.229,1.823l-.036-.182a10.861,10.861,0,0,0,4.229-2.042c3.937-3.208.8-6.271.8-6.271C83.049,2,78.309,1.785,78.309,1.785l-5.469,5.25,2.552,2.479,2.516-2.37ZM77.8,5.176l-2.443,2.37A1.407,1.407,0,0,0,75.5,8.858l2.187-2.151A1.325,1.325,0,0,0,77.8,5.176" transform="translate(-31.053 11.746)" fill="#357ba6"/>
    </g>
  </g>
</svg>
