<svg xmlns="http://www.w3.org/2000/svg" width="35" height="35" viewBox="0 0 35 35">
  <g id="ico-Family" transform="translate(-4.512 -0.728)">
    <g id="Group_5056" data-name="Group 5056" transform="translate(4.512 0.728)">
      <path id="Path_60422" data-name="Path 60422" d="M53.807,15.758,41.557,27.186V47.093a1.289,1.289,0,0,0,1.288,1.29H64.769a1.289,1.289,0,0,0,1.288-1.29V27.186Z" transform="translate(-36.307 -13.667)" fill="#d6e4ed"/>
      <path id="Path_60423" data-name="Path 60423" d="M63.052,46.95H41.128a1.575,1.575,0,0,1-1.571-1.574V25.469a.285.285,0,0,1,.09-.208L51.9,13.833a.283.283,0,0,1,.386,0l12.25,11.428a.284.284,0,0,1,.09.208V45.376A1.574,1.574,0,0,1,63.052,46.95ZM40.124,25.592V45.376a1.007,1.007,0,0,0,1,1.006H63.052a1.007,1.007,0,0,0,1-1.006V25.592L52.09,14.429Z" transform="translate(-34.591 -11.95)" fill="#357ba6"/>
      <g id="Group_5053" data-name="Group 5053" transform="translate(0.282 0.281)">
        <g id="Group_5052" data-name="Group 5052">
          <path id="Path_60424" data-name="Path 60424" d="M39.133,21.009a1.8,1.8,0,0,1-1.23-.485L23.722,7.295,9.542,20.524a1.808,1.808,0,0,1-2.462-2.648L22.492,3.5a1.8,1.8,0,0,1,2.461,0L40.364,17.875a1.809,1.809,0,0,1-1.231,3.133Z" transform="translate(-6.505 -3.013)" fill="#84aec9"/>
        </g>
      </g>
      <g id="Group_5055" data-name="Group 5055" transform="translate(0 0)">
        <g id="Group_5054" data-name="Group 5054">
          <path id="Path_60425" data-name="Path 60425" d="M6.6,19.594H6.526a2.074,2.074,0,0,1-1.455-.665,2.1,2.1,0,0,1,.105-2.958L20.588,1.591a2.094,2.094,0,0,1,2.848,0L38.847,15.968A2.092,2.092,0,1,1,36,19.032L22.012,5.984,8.025,19.032A2.072,2.072,0,0,1,6.6,19.594ZM22.012,1.6a1.517,1.517,0,0,0-1.038.407L5.563,16.384a1.529,1.529,0,0,0-.077,2.156,1.52,1.52,0,0,0,2.152.077L21.818,5.388a.283.283,0,0,1,.386,0l14.18,13.229a1.524,1.524,0,0,0,2.075-2.233L23.049,2.007A1.517,1.517,0,0,0,22.012,1.6Z" transform="translate(-4.512 -1.033)" fill="#357ba6"/>
        </g>
      </g>
    </g>
    <g id="Group_5057" data-name="Group 5057" transform="translate(14.29 14.08)">
      <path id="Path_60261" data-name="Path 60261" d="M112.216,139v-.553a3.151,3.151,0,0,0-3.149-3.154h0a3.151,3.151,0,0,0-3.149,3.154V139Z" transform="translate(-101.229 -130.137)" fill="#ceccda"/>
      <ellipse id="Ellipse_1823" data-name="Ellipse 1823" cx="2.433" cy="2.437" rx="2.433" ry="2.437" transform="translate(5.406 0.283)" fill="#e6e5ec"/>
      <path id="Union_57" data-name="Union 57" d="M22078.506-22755.205a.284.284,0,0,1-.285-.279v-.555a3.446,3.446,0,0,1,2.152-3.191,2.729,2.729,0,0,1-1.434-2.4,2.721,2.721,0,0,1,2.715-2.719,2.721,2.721,0,0,1,2.713,2.719,2.725,2.725,0,0,1-1.434,2.4,3.448,3.448,0,0,1,2.154,3.191v.555a.282.282,0,0,1-.287.279Zm.285-.834v.268h5.73v-.268a2.871,2.871,0,0,0-2.867-2.869A2.87,2.87,0,0,0,22078.791-22756.039Zm.715-5.594a2.153,2.153,0,0,0,2.148,2.154,2.151,2.151,0,0,0,2.148-2.154,2.152,2.152,0,0,0-2.148-2.154A2.155,2.155,0,0,0,22079.506-22761.633Z" transform="translate(-22073.813 22764.352)" fill="#484076"/>
      <ellipse id="Ellipse_1824" data-name="Ellipse 1824" cx="2.433" cy="2.437" rx="2.433" ry="2.437" transform="translate(1 4.01)" fill="#e6e5ec"/>
      <ellipse id="Ellipse_1825" data-name="Ellipse 1825" cx="2.433" cy="2.437" rx="2.433" ry="2.437" transform="translate(9.775 4.01)" fill="#e6e5ec"/>
      <path id="Path_60264" data-name="Path 60264" d="M81.118,165.247v-.553a3.151,3.151,0,0,0-3.149-3.154h0a3.151,3.151,0,0,0-3.149,3.154v.553Z" transform="translate(-74.537 -152.656)" fill="#ceccda"/>
      <path id="Union_56" data-name="Union 56" d="M22078.506-22755.205a.284.284,0,0,1-.285-.279v-.555a3.446,3.446,0,0,1,2.152-3.191,2.729,2.729,0,0,1-1.434-2.4,2.721,2.721,0,0,1,2.715-2.719,2.726,2.726,0,0,1,2.719,2.719,2.728,2.728,0,0,1-1.437,2.4,3.446,3.446,0,0,1,2.152,3.191v.555a.281.281,0,0,1-.281.279Zm.285-.834v.268h5.73v-.268a2.871,2.871,0,0,0-2.867-2.869A2.87,2.87,0,0,0,22078.791-22756.039Zm.715-5.594a2.153,2.153,0,0,0,2.148,2.154,2.151,2.151,0,0,0,2.148-2.154,2.147,2.147,0,0,0-2.148-2.148A2.15,2.15,0,0,0,22079.506-22761.633Z" transform="translate(-22078.223 22768.078)" fill="#484076"/>
      <path id="Path_60267" data-name="Path 60267" d="M143.04,165.247v-.553a3.151,3.151,0,0,0-3.148-3.154h0a3.151,3.151,0,0,0-3.149,3.154v.553Z" transform="translate(-127.684 -152.656)" fill="#ceccda"/>
      <path id="Union_55" data-name="Union 55" d="M22078.506-22755.205a.284.284,0,0,1-.285-.279v-.555a3.446,3.446,0,0,1,2.152-3.191,2.729,2.729,0,0,1-1.434-2.4,2.721,2.721,0,0,1,2.715-2.719,2.726,2.726,0,0,1,2.719,2.719,2.728,2.728,0,0,1-1.437,2.4,3.446,3.446,0,0,1,2.152,3.191v.555a.281.281,0,0,1-.281.279Zm.285-.834v.268h5.73v-.268a2.871,2.871,0,0,0-2.867-2.869A2.87,2.87,0,0,0,22078.791-22756.039Zm.715-5.594a2.153,2.153,0,0,0,2.148,2.154,2.151,2.151,0,0,0,2.148-2.154,2.147,2.147,0,0,0-2.148-2.148A2.15,2.15,0,0,0,22079.506-22761.633Z" transform="translate(-22069.447 22768.078)" fill="#484076"/>
      <path id="Path_60270" data-name="Path 60270" d="M112.216,184.175v-.553a3.151,3.151,0,0,0-3.149-3.154h0a3.151,3.151,0,0,0-3.149,3.154v.553Z" transform="translate(-101.229 -168.896)" fill="#ceccda"/>
      <ellipse id="Ellipse_1826" data-name="Ellipse 1826" cx="2.433" cy="2.437" rx="2.433" ry="2.437" transform="translate(5.406 6.697)" fill="#e6e5ec"/>
      <path id="Union_54" data-name="Union 54" d="M22078.506-22755.2a.289.289,0,0,1-.285-.285v-.555a3.446,3.446,0,0,1,2.152-3.191,2.729,2.729,0,0,1-1.434-2.4,2.721,2.721,0,0,1,2.715-2.719,2.721,2.721,0,0,1,2.713,2.719,2.725,2.725,0,0,1-1.434,2.4,3.448,3.448,0,0,1,2.154,3.191v.555a.287.287,0,0,1-.287.285Zm.285-.84v.268h5.73v-.268a2.871,2.871,0,0,0-2.867-2.869A2.87,2.87,0,0,0,22078.791-22756.039Zm.715-5.594a2.153,2.153,0,0,0,2.148,2.154,2.151,2.151,0,0,0,2.148-2.154,2.152,2.152,0,0,0-2.148-2.154A2.155,2.155,0,0,0,22079.506-22761.633Z" transform="translate(-22073.814 22770.766)" fill="#484076"/>
    </g>
  </g>
</svg>
