<svg xmlns="http://www.w3.org/2000/svg" width="34.999" height="35" viewBox="0 0 34.999 35">
  <g id="ico-CV" transform="translate(-24.327 -1)">
    <g id="Group_5088" data-name="Group 5088" transform="translate(31.662 1)">
      <path id="Path_59992" data-name="Path 59992" d="M80.134,34.693H56.327a1.654,1.654,0,0,1-1.654-1.654V4.654A1.654,1.654,0,0,1,56.327,3H80.134a1.654,1.654,0,0,1,1.654,1.654V33.039A1.654,1.654,0,0,1,80.134,34.693Z" transform="translate(-54.398 -2.725)" fill="#d6e4ed"/>
      <path id="Path_59993" data-name="Path 59993" d="M78.409,33.244H54.6a1.931,1.931,0,0,1-1.929-1.929V2.929A1.931,1.931,0,0,1,54.6,1H78.409a1.931,1.931,0,0,1,1.929,1.929V31.315A1.931,1.931,0,0,1,78.409,33.244ZM54.6,1.551a1.38,1.38,0,0,0-1.378,1.378V31.315A1.38,1.38,0,0,0,54.6,32.693H78.409a1.38,1.38,0,0,0,1.378-1.378V2.929a1.38,1.38,0,0,0-1.378-1.378Z" transform="translate(-52.674 -1)" fill="#357ba6"/>
    </g>
    <g id="Group_4491" data-name="Group 4491" transform="translate(24.328 4.031)">
      <path id="Path_60473" data-name="Path 60473" d="M52.783,54.693H27.98a1.653,1.653,0,0,1-1.653-1.654V24.654A1.653,1.653,0,0,1,27.98,23h24.8a1.653,1.653,0,0,1,1.653,1.654V53.039A1.653,1.653,0,0,1,52.783,54.693Z" transform="translate(-26.327 -23)" fill="#d6e4ed"/>
    </g>
    <g id="Group_4492" data-name="Group 4492" transform="translate(24.327 3.756)">
      <path id="Path_59995" data-name="Path 59995" d="M51.059,53.244h-24.8a1.931,1.931,0,0,1-1.929-1.929V22.929A1.931,1.931,0,0,1,26.256,21h24.8a1.931,1.931,0,0,1,1.929,1.929V51.315A1.931,1.931,0,0,1,51.059,53.244Zm-24.8-31.693a1.379,1.379,0,0,0-1.378,1.378V51.315a1.379,1.379,0,0,0,1.378,1.378h24.8a1.379,1.379,0,0,0,1.378-1.378V22.929a1.379,1.379,0,0,0-1.378-1.378Z" transform="translate(-24.327 -21)" fill="#357ba6"/>
    </g>
    <g id="Group_4526" data-name="Group 4526" transform="translate(28.327 6.133)">
      <g id="Group_4493" data-name="Group 4493" transform="translate(9.575 0.276)">
        <path id="Path_59996" data-name="Path 59996" d="M108.827,49.553v-9.3h9.988a.689.689,0,0,1,.689.689v7.923a.689.689,0,0,1-.689.689Z" transform="translate(-108.827 -40.252)" fill="#e6e5ec"/>
      </g>
      <g id="Group_4494" data-name="Group 4494" transform="translate(0.276 0.276)">
        <path id="Path_59997" data-name="Path 59997" d="M41.327,48.864V40.941a.689.689,0,0,1,.689-.689h8.611v9.3H42.016A.689.689,0,0,1,41.327,48.864Z" transform="translate(-41.327 -40.252)" fill="#ceccda"/>
      </g>
      <g id="Group_4505" data-name="Group 4505" transform="translate(0.276 20.643)" opacity="0.5">
        <g id="Group_4496" data-name="Group 4496">
          <g id="Group_4495" data-name="Group 4495">
            <path id="Path_59998" data-name="Path 59998" d="M46.769,189.165H41.878a.551.551,0,0,1-.551-.551h0a.551.551,0,0,1,.551-.551h4.891a.551.551,0,0,1,.551.551h0A.551.551,0,0,1,46.769,189.165Z" transform="translate(-41.327 -188.063)" fill="#357ba6"/>
          </g>
        </g>
        <g id="Group_4498" data-name="Group 4498" transform="translate(0 2.734)">
          <g id="Group_4497" data-name="Group 4497">
            <path id="Path_59999" data-name="Path 59999" d="M48.422,209.008H41.878a.551.551,0,0,1-.551-.551h0a.551.551,0,0,1,.551-.551h6.544a.551.551,0,0,1,.551.551h0A.551.551,0,0,1,48.422,209.008Z" transform="translate(-41.327 -207.906)" fill="#357ba6"/>
          </g>
        </g>
        <g id="Group_4500" data-name="Group 4500" transform="translate(0 5.468)">
          <g id="Group_4499" data-name="Group 4499">
            <path id="Path_60000" data-name="Path 60000" d="M48.422,228.85H41.878a.551.551,0,0,1-.551-.551h0a.551.551,0,0,1,.551-.551h6.544a.551.551,0,0,1,.551.551h0A.551.551,0,0,1,48.422,228.85Z" transform="translate(-41.327 -227.748)" fill="#357ba6"/>
          </g>
        </g>
        <g id="Group_4502" data-name="Group 4502" transform="translate(9.3 2.734)">
          <g id="Group_4501" data-name="Group 4501">
            <path id="Path_60001" data-name="Path 60001" d="M118.953,209.008h-9.575a.551.551,0,0,1-.551-.551h0a.551.551,0,0,1,.551-.551h9.575a.551.551,0,0,1,.551.551h0A.551.551,0,0,1,118.953,209.008Z" transform="translate(-108.827 -207.906)" fill="#357ba6"/>
          </g>
        </g>
        <g id="Group_4504" data-name="Group 4504" transform="translate(9.3 5.468)">
          <g id="Group_4503" data-name="Group 4503">
            <path id="Path_60002" data-name="Path 60002" d="M118.953,228.85h-9.575a.551.551,0,0,1-.551-.551h0a.551.551,0,0,1,.551-.551h9.575a.551.551,0,0,1,.551.551h0A.551.551,0,0,1,118.953,228.85Z" transform="translate(-108.827 -227.748)" fill="#357ba6"/>
          </g>
        </g>
      </g>
      <g id="Group_4516" data-name="Group 4516" transform="translate(0.276 11.598)" opacity="0.5">
        <g id="Group_4507" data-name="Group 4507">
          <g id="Group_4506" data-name="Group 4506">
            <path id="Path_60003" data-name="Path 60003" d="M46.769,123.522H41.878a.551.551,0,0,1-.551-.551h0a.551.551,0,0,1,.551-.551h4.891a.551.551,0,0,1,.551.551h0A.551.551,0,0,1,46.769,123.522Z" transform="translate(-41.327 -122.42)" fill="#357ba6"/>
          </g>
        </g>
        <g id="Group_4509" data-name="Group 4509" transform="translate(0 2.734)">
          <g id="Group_4508" data-name="Group 4508">
            <path id="Path_60004" data-name="Path 60004" d="M48.422,143.364H41.878a.551.551,0,0,1-.551-.551h0a.551.551,0,0,1,.551-.551h6.544a.551.551,0,0,1,.551.551h0A.551.551,0,0,1,48.422,143.364Z" transform="translate(-41.327 -142.262)" fill="#357ba6"/>
          </g>
        </g>
        <g id="Group_4511" data-name="Group 4511" transform="translate(0 5.468)">
          <g id="Group_4510" data-name="Group 4510">
            <path id="Path_60005" data-name="Path 60005" d="M48.422,163.207H41.878a.551.551,0,0,1-.551-.551h0a.551.551,0,0,1,.551-.551h6.544a.551.551,0,0,1,.551.551h0A.551.551,0,0,1,48.422,163.207Z" transform="translate(-41.327 -162.105)" fill="#357ba6"/>
          </g>
        </g>
        <g id="Group_4513" data-name="Group 4513" transform="translate(9.3 2.734)">
          <g id="Group_4512" data-name="Group 4512">
            <path id="Path_60006" data-name="Path 60006" d="M118.953,143.364h-9.575a.551.551,0,0,1-.551-.551h0a.551.551,0,0,1,.551-.551h9.575a.551.551,0,0,1,.551.551h0A.551.551,0,0,1,118.953,143.364Z" transform="translate(-108.827 -142.262)" fill="#357ba6"/>
          </g>
        </g>
        <g id="Group_4515" data-name="Group 4515" transform="translate(9.3 5.468)">
          <g id="Group_4514" data-name="Group 4514">
            <path id="Path_60007" data-name="Path 60007" d="M118.953,163.207h-9.575a.551.551,0,0,1-.551-.551h0a.551.551,0,0,1,.551-.551h9.575a.551.551,0,0,1,.551.551h0A.551.551,0,0,1,118.953,163.207Z" transform="translate(-108.827 -162.105)" fill="#357ba6"/>
          </g>
        </g>
      </g>
      <g id="Group_4517" data-name="Group 4517" transform="translate(2.724 1.602)">
        <ellipse id="Ellipse_1807" data-name="Ellipse 1807" cx="2.201" cy="2.202" rx="2.201" ry="2.202" fill="#e6e5ec"/>
      </g>
      <g id="Group_4518" data-name="Group 4518" transform="translate(2.161 6.005)">
        <path id="Path_60008" data-name="Path 60008" d="M60.539,85.4h-5.53v-.8a2.765,2.765,0,0,1,2.765-2.765h0A2.765,2.765,0,0,1,60.539,84.6Z" transform="translate(-55.009 -81.833)" fill="#e6e5ec"/>
      </g>
      <g id="Group_4521" data-name="Group 4521" transform="translate(11.466 2.351)">
        <g id="Group_4519" data-name="Group 4519">
          <path id="Path_60009" data-name="Path 60009" d="M124.417,60.464h-.707a1.161,1.161,0,0,1-1.16-1.16v-2.83a1.161,1.161,0,0,1,1.16-1.16h.707a1.161,1.161,0,0,1,1.16,1.16.276.276,0,1,1-.551,0,.609.609,0,0,0-.609-.609h-.707a.609.609,0,0,0-.609.609V59.3a.609.609,0,0,0,.609.609h.707a.609.609,0,0,0,.609-.609.276.276,0,1,1,.551,0A1.161,1.161,0,0,1,124.417,60.464Z" transform="translate(-122.55 -55.314)" fill="#22195a"/>
        </g>
        <g id="Group_4520" data-name="Group 4520" transform="translate(3.869)">
          <path id="Path_60010" data-name="Path 60010" d="M150.909,60.464a.276.276,0,0,1-.276-.276v-4.6a.276.276,0,1,1,.551,0V59.9a2.2,2.2,0,0,0,1.925-2.184V55.59a.276.276,0,1,1,.551,0v2.123A2.755,2.755,0,0,1,150.909,60.464Z" transform="translate(-150.633 -55.314)" fill="#22195a"/>
        </g>
      </g>
      <g id="Group_4522" data-name="Group 4522" transform="translate(9.3)">
        <path id="Path_60011" data-name="Path 60011" d="M117.091,48.1H107.1a.276.276,0,0,1-.276-.276v-9.3a.276.276,0,0,1,.276-.276h9.988a.966.966,0,0,1,.964.965V47.14A.966.966,0,0,1,117.091,48.1Zm-9.713-.551h9.713a.414.414,0,0,0,.413-.413V39.217a.414.414,0,0,0-.413-.413h-9.713Z" transform="translate(-106.827 -38.252)" fill="#22195a"/>
      </g>
      <g id="Group_4523" data-name="Group 4523" transform="translate(0)">
        <path id="Path_60012" data-name="Path 60012" d="M48.9,48.1H40.291a.966.966,0,0,1-.964-.965V39.217a.966.966,0,0,1,.964-.965H48.9a.276.276,0,0,1,.276.276v9.3A.276.276,0,0,1,48.9,48.1Zm-8.611-9.3a.414.414,0,0,0-.413.413V47.14a.414.414,0,0,0,.413.413h8.335V38.8Z" transform="translate(-39.327 -38.252)" fill="#22195a"/>
      </g>
      <g id="Group_4524" data-name="Group 4524" transform="translate(2.448 1.326)">
        <path id="Path_60013" data-name="Path 60013" d="M59.575,52.83a2.477,2.477,0,1,1,2.477-2.477A2.48,2.48,0,0,1,59.575,52.83Zm0-4.4A1.926,1.926,0,1,0,61.5,50.352,1.928,1.928,0,0,0,59.575,48.426Z" transform="translate(-57.098 -47.875)" fill="#22195a"/>
      </g>
      <g id="Group_4525" data-name="Group 4525" transform="translate(1.885 5.73)">
        <path id="Path_60014" data-name="Path 60014" d="M58.814,83.949h-5.53a.276.276,0,0,1-.276-.276v-.8a3.04,3.04,0,1,1,6.081,0v.8A.276.276,0,0,1,58.814,83.949ZM53.56,83.4h4.979v-.525a2.489,2.489,0,1,0-4.979,0Z" transform="translate(-53.009 -79.832)" fill="#22195a"/>
      </g>
    </g>
  </g>
</svg>
